PathFileType	4	(X/Y/Z)	D:\TRACE\spotREDO_2-26-24\spot_justBody_Motion_3_4-platform.trc
DataRate	CameraRate	NumFrames	NumMarkers	Units	OrigDataRate	OrigDataStartFrame	OrigNumFrames
100.00	100.00	      24	5	mm	100.00	876	      7000
Frame#	Time	Left_Front			Right_Front			Left_Aft			Right_Aft			Post			
		X1	Y1	Z1	X2	Y2	Z2	X3	Y3	Z3	X4	Y4	Z4	X5	Y5	Z5	

876	8.750	-681.39362	-16.61983	-578.74213	733.56104	-5.75985	-494.20746	-752.72223	17.07075	639.39178	817.45288	24.98046	643.39923	28.81137	601.67181	-998.47113	
877	8.760	-681.49774	-16.18984	-578.67206	733.57153	-5.66049	-493.98386	-752.96918	16.91922	639.51471	817.35046	24.76588	643.52838	28.58510	602.36584	-997.58069	
878	8.770	-681.62512	-15.73199	-578.58978	733.30750	-5.25699	-494.03207	-753.15479	16.82646	639.54004	817.14429	24.55400	643.61359	28.59199	603.08002	-996.85431	
879	8.780	-681.73334	-15.41923	-578.49420	733.18896	-4.98694	-493.93875	-753.29095	16.34526	639.61029	816.88129	24.20138	643.79065	28.23463	603.49420	-996.38916	
880	8.790	-681.91760	-15.14579	-578.42194	733.32904	-5.07046	-493.85117	-753.47571	16.07962	639.60468	816.61456	23.75446	643.88898	27.69341	604.17432	-996.10156	
881	8.800	-682.12543	-14.85116	-578.37628	732.83075	-4.55213	-493.80405	-753.69586	15.78139	639.79395	816.41248	23.02438	643.92456	27.25608	604.85010	-995.82123	
882	8.810	-682.22913	-14.52205	-578.25684	732.73499	-4.17464	-493.60782	-753.98657	15.54339	639.99194	816.22620	22.92851	643.97943	27.59517	605.43622	-995.39771	
883	8.820	-682.38177	-14.23798	-578.19757	732.33923	-3.89600	-493.57529	-754.23944	15.11352	640.17877	816.17798	22.68675	644.06317	27.59564	606.03577	-995.22314	
884	8.830	-682.73615	-13.70005	-578.13074	732.01978	-3.41476	-493.71094	-754.47021	14.73275	640.30011	816.03992	22.36791	644.17822	27.25076	606.53088	-995.20612	
885	8.840	-683.08411	-13.33393	-578.11060	731.76587	-3.17919	-493.51917	-754.72662	14.28649	640.43488	815.75348	21.76322	644.40900	26.80262	607.13843	-995.15259	
886	8.850	-683.29169	-13.10090	-577.96863	731.54370	-2.93736	-493.40543	-754.69470	14.11610	640.77606	815.78235	21.53071	644.63153	26.64459	607.62146	-994.82550	
887	8.860	-683.50598	-12.71699	-577.80554	731.23053	-2.36177	-493.45969	-754.92236	13.78082	640.81152	815.33386	21.09876	644.72894	26.46022	608.37390	-994.20850	
888	8.870	-683.56378	-12.34872	-577.74670	731.22302	-2.06044	-493.42786	-755.05096	13.44472	640.84442	815.10400	20.80711	644.81366	26.42334	609.00769	-993.53912	
889	8.880	-683.55536	-12.07950	-577.71490	731.07666	-1.69645	-493.25995	-755.24402	12.95708	640.76257	815.06976	20.45380	645.04651	25.88639	609.47992	-993.02271	
890	8.890	-683.72607	-11.61534	-577.63239	730.93719	-1.43615	-493.21304	-755.50562	12.48962	640.84625	815.06512	20.08345	645.09302	25.72526	610.26837	-992.17633	
891	8.900	-683.88000	-11.20044	-577.60809	730.96893	-1.44147	-492.86746	-755.54663	11.95349	640.95795	814.75098	19.48594	645.11786	25.48182	610.87177	-991.41077	
892	8.910	-684.08252	-10.81107	-577.55798	730.67798	-1.07424	-492.91464	-755.63904	11.49770	641.04358	814.58435	19.21115	645.10022	25.33260	611.40375	-990.84467	
893	8.920	-684.38654	-10.36167	-577.41174	730.57642	-0.70441	-492.84579	-755.74908	11.24038	641.10461	814.44794	18.94417	645.35217	25.29089	612.12872	-990.28491	
894	8.930	-684.45850	-10.12652	-577.21661	730.47968	-0.34106	-492.75900	-755.88153	10.85267	641.25403	814.21930	18.32991	645.32751	25.13490	612.95630	-989.78058	
895	8.940	-684.56555	-9.81107	-577.20221	730.30048	-0.02513	-492.61456	-756.01929	10.41626	641.38092	814.10583	18.03290	645.40436	25.06456	613.48962	-989.45691	
896	8.950	-684.69946	-9.42902	-577.16046	730.24750	0.08440	-492.50989	-756.11072	10.05678	641.40283	814.10315	17.75149	645.49091	24.96431	614.01776	-989.33270	
897	8.960	-684.86749	-9.00940	-576.99573	730.12695	0.45563	-492.36847	-756.24133	9.51006	641.59546	813.96594	17.30231	645.67670	24.96716	614.63116	-989.15424	
898	8.970	-685.08478	-8.59649	-576.76862	729.88684	1.04590	-492.27832	-756.43311	9.25711	641.70905	814.21448	16.61734	645.79761	24.75387	615.19647	-988.98059	
899	8.980	-685.21173	-8.25201	-576.65204	729.82971	1.35388	-492.21185	-756.61719	9.02521	641.90240	813.98871	16.10447	645.75006	24.55768	615.94189	-988.50452	
